<svg xmlns="http://www.w3.org/2000/svg" version="1.1" viewBox="-5.0 -10.0 110.0 135.0">
  <path fill="#ef3e42" d="m51.562 85.156h-43.75c-0.66797 0-1.3008-0.28516-1.7461-0.78125-0.44531-0.49609-0.65625-1.1602-0.58203-1.8203l8.375-75c0.13281-1.1875 1.1367-2.0859 2.3281-2.0859h53.562c1.1953 0 2.1953 0.89844 2.3281 2.0859l4.1406 37.109c0.14453 1.2852-0.78125 2.4453-2.0703 2.5898-1.2891 0.13281-2.4453-0.78125-2.5898-2.0703l-3.9062-35.023-49.367-0.003906-7.8516 70.312h41.129c1.293 0 2.3438 1.0508 2.3438 2.3438s-1.0508 2.3438-2.3438 2.3438z"/>
  <path fill="#ef3e42" d="m19.867 85.156c-0.050782 0-0.10547 0-0.16016-0.003906-1.293-0.085938-2.2695-1.2031-2.1836-2.4961l5.0273-75c0.085938-1.2891 1.1914-2.2539 2.4961-2.1836 1.293 0.085938 2.2695 1.2031 2.1836 2.4961l-5.0234 75c-0.082031 1.2383-1.1133 2.1875-2.3359 2.1875z"/>
  <path fill="#ef3e42" d="m63.715 49.953c-1.2227 0-2.2539-0.94922-2.3359-2.1875l-2.6719-39.797c-0.085937-1.293 0.89062-2.4102 2.1797-2.4961 1.2891-0.070312 2.4102 0.89062 2.4961 2.1836l2.6719 39.797c0.085937 1.293-0.89063 2.4102-2.1797 2.4961-0.054688 0.003906-0.10547 0.003906-0.16016 0.003906z"/>
  <path fill="#ef3e42" d="m42.973 23.367c-1.293 0-2.3438-1.0508-2.3438-2.3438v-5.3984c0-1.293 1.0508-2.3438 2.3438-2.3438 1.293 0 2.3438 1.0508 2.3438 2.3438v5.3984c0 1.293-1.0508 2.3438-2.3438 2.3438z"/>
  <path fill="#ef3e42" d="m42.973 41.359c-1.293 0-2.3438-1.0508-2.3438-2.3438v-5.3984c0-1.293 1.0508-2.3438 2.3438-2.3438 1.293 0 2.3438 1.0508 2.3438 2.3438v5.3984c0 1.293-1.0508 2.3438-2.3438 2.3438z"/>
  <path fill="#ef3e42" d="m42.973 59.352c-1.293 0-2.3438-1.0508-2.3438-2.3438v-5.3984c0-1.293 1.0508-2.3438 2.3438-2.3438 1.293 0 2.3438 1.0508 2.3438 2.3438v5.3984c0 1.293-1.0508 2.3438-2.3438 2.3438z"/>
  <path fill="#ef3e42" d="m42.973 77.344c-1.293 0-2.3438-1.0508-2.3438-2.3438v-5.3984c0-1.293 1.0508-2.3438 2.3438-2.3438 1.293 0 2.3438 1.0508 2.3438 2.3438v5.3984c0 1.293-1.0508 2.3438-2.3438 2.3438z"/>
  <path fill="#ef3e42" d="m73.438 94.531c-2.2578 0-21.094-10.719-21.094-30.875 0-11.633 9.4609-21.094 21.094-21.094s21.094 9.4609 21.094 21.094c0 20.156-18.836 30.875-21.094 30.875zm0.63281-4.5898zm-1.2617 0zm0.63281-42.691c-9.0469 0-16.406 7.3594-16.406 16.406 0 15.039 12.836 24.129 16.406 25.992 3.5703-1.8633 16.406-10.953 16.406-25.992 0-9.0469-7.3594-16.406-16.406-16.406z"/>
  <path fill="#ef3e42" d="m73.438 74.965c-6.2383 0-11.312-5.0742-11.312-11.312 0-6.2383 5.0742-11.312 11.312-11.312s11.312 5.0742 11.312 11.312c0 6.2383-5.0742 11.312-11.312 11.312zm0-17.934c-3.6523 0-6.625 2.9727-6.625 6.625s2.9727 6.625 6.625 6.625 6.625-2.9727 6.625-6.625-2.9727-6.625-6.625-6.625z"/>
</svg>
