<svg xmlns="http://www.w3.org/2000/svg" xmlns:xlink="http://www.w3.org/1999/xlink" version="1.1" x="0px" y="0px" viewBox="0 0 48 60" style="enable-background:new 0 0 48 48;" xml:space="preserve">
  <g>
    <path fill="#ef3e42" d="M18.35,23.76c-1.38,0.98-2.2,2.58-2.2,4.27c0,1.69,0.82,3.29,2.2,4.27c0.17,0.12,0.37,0.18,0.58,0.18 c0.32,0,0.63-0.16,0.81-0.42c0.15-0.22,0.22-0.48,0.17-0.75s-0.19-0.49-0.41-0.65c-0.85-0.61-1.36-1.6-1.36-2.64 c0-1.06,0.51-2.03,1.4-2.66c1.07-0.74,1.7-1.94,1.7-3.21c0-1.27-0.65-2.48-1.73-3.23c-0.85-0.61-1.36-1.6-1.36-2.64 s0.51-2.03,1.36-2.64c0.22-0.15,0.36-0.39,0.41-0.65c0.04-0.26-0.02-0.53-0.17-0.75c-0.32-0.45-0.94-0.55-1.4-0.23 c-1.38,0.98-2.2,2.58-2.2,4.27c0,1.69,0.84,3.3,2.25,4.3c0.53,0.36,0.84,0.95,0.84,1.57C19.25,22.79,18.92,23.37,18.35,23.76z"/>
    <path fill="#ef3e42" d="M23.65,23.76c-1.38,0.98-2.2,2.58-2.2,4.27c0,1.69,0.82,3.29,2.21,4.27c0.17,0.12,0.37,0.18,0.58,0.18 c0.32,0,0.63-0.16,0.81-0.42c0.16-0.22,0.22-0.48,0.17-0.75s-0.19-0.5-0.41-0.65c-0.85-0.61-1.36-1.6-1.36-2.64 c0-1.06,0.51-2.03,1.4-2.66c1.07-0.74,1.7-1.94,1.7-3.21c0-1.27-0.65-2.48-1.73-3.23c-0.85-0.61-1.36-1.6-1.36-2.64 c0-1.04,0.51-2.03,1.36-2.64c0.22-0.16,0.36-0.39,0.41-0.65c0.04-0.26-0.02-0.53-0.17-0.75c-0.32-0.45-0.94-0.55-1.4-0.23 c-1.38,0.98-2.2,2.58-2.2,4.27c0,1.69,0.84,3.3,2.25,4.3c0.53,0.36,0.84,0.95,0.84,1.57C24.55,22.79,24.23,23.37,23.65,23.76z"/>
    <path fill="#ef3e42" d="M28.96,23.76c-1.38,0.98-2.2,2.58-2.2,4.27c0,1.69,0.82,3.29,2.2,4.27c0.17,0.12,0.37,0.19,0.58,0.19 c0.32,0,0.63-0.16,0.81-0.42c0.32-0.45,0.21-1.07-0.23-1.39c-0.85-0.61-1.36-1.6-1.36-2.64c0-1.06,0.51-2.03,1.4-2.67 c1.06-0.74,1.7-1.94,1.7-3.21c0-1.27-0.65-2.48-1.73-3.23c-0.85-0.61-1.36-1.6-1.36-2.64c0-1.04,0.51-2.03,1.37-2.64 c0.45-0.32,0.55-0.95,0.23-1.4c-0.32-0.45-0.94-0.55-1.39-0.23c-1.38,0.98-2.2,2.58-2.2,4.27c0,1.69,0.84,3.3,2.25,4.3 c0.53,0.36,0.84,0.95,0.84,1.57C29.85,22.79,29.53,23.37,28.96,23.76z"/>
    <path fill="#ef3e42" d="M35.56,34.17H12.44c-0.55,0-1,0.45-1,1s0.45,1,1,1h23.11c0.55,0,1-0.45,1-1S36.11,34.17,35.56,34.17z"/>
  </g>
</svg>
