<svg xmlns="http://www.w3.org/2000/svg" version="1.1" viewBox="-5.0 -10.0 110.0 135.0">
  <path fill="#ef3e42" d="m76.379 14.551h1.2617c1.2227 0 2.3398-0.5 3.1484-1.3125 0.80859-0.80859 1.3125-1.9219 1.3125-3.1484 0-1.2227-0.5-2.3398-1.3125-3.1484-0.80859-0.80859-1.9219-1.3125-3.1484-1.3125h-55.277c-1.2227 0-2.3398 0.50391-3.1484 1.3125s-1.3125 1.9219-1.3125 3.1484c0 1.2227 0.5 2.3398 1.3125 3.1484 0.80859 0.80859 1.9219 1.3125 3.1484 1.3125h54.02zm-17.266 28.047c2.6172 0 4.9883 1.0625 6.7031 2.7773s2.7773 4.0898 2.7773 6.7031c0 2.6172-1.0625 4.9883-2.7773 6.7031s-4.0859 2.7773-6.7031 2.7773c-2.6172 0-4.9883-1.0625-6.7031-2.7773s-2.7773-4.0898-2.7773-6.7031c0-2.6172 1.0625-4.9883 2.7773-6.7031s4.0898-2.7773 6.7031-2.7773zm3.4609 6.0195c-0.88672-0.88672-2.1094-1.4336-3.4609-1.4336-1.3516 0-2.5781 0.55078-3.4609 1.4336-0.88672 0.88672-1.4336 2.1094-1.4336 3.4609s0.55078 2.5781 1.4336 3.4609c0.88672 0.88672 2.1094 1.4336 3.4609 1.4336 1.3516 0 2.5781-0.55078 3.4609-1.4336 0.88672-0.88672 1.4336-2.1094 1.4336-3.4609s-0.55078-2.5781-1.4336-3.4609zm-21.844-26.184c3 0 5.7188 1.2188 7.6836 3.1836 1.9688 1.9688 3.1836 4.6836 3.1836 7.6875 0 3-1.2188 5.7188-3.1836 7.6875-1.9688 1.9688-4.6836 3.1836-7.6836 3.1836s-5.7188-1.2188-7.6875-3.1836c-1.9688-1.9688-3.1836-4.6836-3.1836-7.6875 0-3 1.2188-5.7188 3.1836-7.6875 1.9688-1.9688 4.6836-3.1836 7.6875-3.1836zm4.4414 6.4297c-1.1367-1.1367-2.707-1.8398-4.4414-1.8398s-3.3047 0.70312-4.4414 1.8398c-1.1367 1.1367-1.8398 2.707-1.8398 4.4414 0 1.7344 0.70312 3.3047 1.8398 4.4414 1.1367 1.1367 2.707 1.8398 4.4414 1.8398s3.3047-0.70313 4.4414-1.8398c1.1367-1.1367 1.8398-2.707 1.8398-4.4414 0-1.7344-0.70312-3.3047-1.8398-4.4414zm-19.273 22.129c7.3711-2.2578 12.395 2.9688 17.699 8.4844 4.1016 4.2656 8.4062 8.7383 13.906 8.7383 10.73 0 15.641-9.3086 16.598-11.387v-37.688h-48.207v31.855zm48.207 14.039c-3.332 3.8086-8.6992 7.7734-16.598 7.7734-7.4414 0-12.438-5.1992-17.207-10.156-4.5078-4.6875-8.7656-9.1094-14.398-6.7422v30.098c0 2.2969 0.94141 4.3906 2.4609 5.9062 1.5195 1.5195 3.6055 2.4609 5.9023 2.4609h31.48c2.2969 0 4.3906-0.94141 5.9023-2.4609 1.5195-1.5195 2.4609-3.6055 2.4609-5.9062v-20.973zm4.5898-45.953v66.926c0 3.5625-1.4531 6.8047-3.8047 9.1484-2.3477 2.3477-5.5859 3.8047-9.1484 3.8047h-31.48c-3.5625 0-6.8047-1.457-9.1484-3.8047-2.3477-2.3477-3.8047-5.5859-3.8047-9.1484v-66.926c-2.0742-0.24219-3.9336-1.1914-5.3359-2.5938-1.6367-1.6367-2.6562-3.9023-2.6562-6.3945 0-2.4883 1.0156-4.7539 2.6562-6.3945 1.6367-1.6367 3.8984-2.6562 6.3945-2.6562h55.277c2.4883 0 4.7539 1.0156 6.3945 2.6562 1.6367 1.6367 2.6562 3.9023 2.6562 6.3945 0 2.4883-1.0156 4.7539-2.6562 6.3945-1.4023 1.4023-3.2656 2.3516-5.3359 2.5938z"/>
</svg>