<svg xmlns="http://www.w3.org/2000/svg" data-name="Layer 1" viewBox="0 0 64 80" x="0px" y="0px">
  <path fill="#ef3e42" d="M51.842,6.834h-2.823V3c0-.552-.447-1-1-1H15.981c-.553,0-1,.448-1,1v3.834h-2.823c-.553,0-1,.448-1,1V61c0,.552,.447,1,1,1H51.842c.553,0,1-.448,1-1V7.834c0-.552-.447-1-1-1ZM16.981,4h30.037v2.834H16.981v-2.834Zm9.717,56v-9.521h10.604v9.521h-10.604Zm24.144,0h-11.54v-10.521c0-.552-.447-1-1-1h-12.604c-.553,0-1,.448-1,1v10.521H13.158V8.834H50.842V60Z"/>
  <path fill="#ef3e42" d="M24.161,12.659h-6.706c-.553,0-1,.448-1,1v6.706c0,.552,.447,1,1,1h6.706c.553,0,1-.448,1-1v-6.706c0-.552-.447-1-1-1Zm-1,6.706h-4.706v-4.706h4.706v4.706Z"/>
  <path fill="#ef3e42" d="M35.354,12.659h-6.707c-.553,0-1,.448-1,1v6.706c0,.552,.447,1,1,1h6.707c.553,0,1-.448,1-1v-6.706c0-.552-.447-1-1-1Zm-1,6.706h-4.707v-4.706h4.707v4.706Z"/>
  <path fill="#ef3e42" d="M46.545,12.659h-6.706c-.553,0-1,.448-1,1v6.706c0,.552,.447,1,1,1h6.706c.553,0,1-.448,1-1v-6.706c0-.552-.447-1-1-1Zm-1,6.706h-4.706v-4.706h4.706v4.706Z"/>
  <path fill="#ef3e42" d="M24.161,24.279h-6.706c-.553,0-1,.448-1,1v6.706c0,.552,.447,1,1,1h6.706c.553,0,1-.448,1-1v-6.706c0-.552-.447-1-1-1Zm-1,6.706h-4.706v-4.706h4.706v4.706Z"/>
  <path fill="#ef3e42" d="M35.354,24.279h-6.707c-.553,0-1,.448-1,1v6.706c0,.552,.447,1,1,1h6.707c.553,0,1-.448,1-1v-6.706c0-.552-.447-1-1-1Zm-1,6.706h-4.707v-4.706h4.707v4.706Z"/>
  <path fill="#ef3e42" d="M46.545,24.279h-6.706c-.553,0-1,.448-1,1v6.706c0,.552,.447,1,1,1h6.706c.553,0,1-.448,1-1v-6.706c0-.552-.447-1-1-1Zm-1,6.706h-4.706v-4.706h4.706v4.706Z"/>
  <path fill="#ef3e42" d="M24.161,35.898h-6.706c-.553,0-1,.448-1,1v6.706c0,.552,.447,1,1,1h6.706c.553,0,1-.448,1-1v-6.706c0-.552-.447-1-1-1Zm-1,6.706h-4.706v-4.706h4.706v4.706Z"/>
  <path fill="#ef3e42" d="M35.354,35.898h-6.707c-.553,0-1,.448-1,1v6.706c0,.552,.447,1,1,1h6.707c.553,0,1-.448,1-1v-6.706c0-.552-.447-1-1-1Zm-1,6.706h-4.707v-4.706h4.707v4.706Z"/>
  <path fill="#ef3e42" d="M46.545,35.898h-6.706c-.553,0-1,.448-1,1v6.706c0,.552,.447,1,1,1h6.706c.553,0,1-.448,1-1v-6.706c0-.552-.447-1-1-1Zm-1,6.706h-4.706v-4.706h4.706v4.706Z"/>
</svg>