<svg xmlns="http://www.w3.org/2000/svg" version="1.1" viewBox="-5.0 -10.0 110.0 135.0">
 <g>
  <path fill="#ef3e42" d="m95.199 56.051 1.5625-3.9062c0.17188-0.42969 0.14453-0.90625-0.066407-1.3125l-7.0312-13.281c-0.22266-0.41406-0.61719-0.71094-1.0781-0.80078l-3.9062-0.78125c-0.30469-0.0625-0.61719-0.03125-0.90625 0.089844l-8.8047 3.668-5.6719-2.125c-0.30859-0.11328-9.5547 2.3008-9.5547 2.3008l0.003906-0.003906c-0.32812 0.089843-0.62109 0.28516-0.82812 0.55469l-5.9531 7.7227c-0.29688 0.38672-6.4727-1.9531-6.4727-1.9531-3.1953-1.6953-7.125-1.0977-9.6719 1.4688l-1.9727 1.9688-1.2656-0.63281v-0.003906l-0.78125-6.25c-0.070312-0.5625-0.44141-1.043-0.96875-1.2539l-3.457-1.3828-5.9805-8.9727c-0.28906-0.43359-0.77734-0.69531-1.3008-0.69531h-12.5c-0.50391 0-0.97656 0.24219-1.2695 0.65234l-3.9062 5.4688c-0.36719 0.51172-0.39062 1.1953-0.0625 1.7305l2.5547 4.1484-2.4492 3.1094c-0.21875 0.27344-0.33594 0.61719-0.33594 0.96875v5.7969c0 0.69922 0.46094 1.3125 1.1328 1.5039l4.3359 1.2383v3.5078h-3.9062c-0.86328 0-1.5625 0.69922-1.5625 1.5625s0.69922 1.5625 1.5625 1.5625h11.992c0.23047 1.3594 0.66797 2.6797 1.2969 3.9062h-3.1328c-0.86328 0-1.5625 0.69922-1.5625 1.5625s0.69922 1.5625 1.5625 1.5625h50.781c0.86328 0 1.5625-0.69922 1.5625-1.5625s-0.69922-1.5625-1.5625-1.5625h-1.6953l2.8008-2.8008c0.29297-0.29297 0.45312-0.69141 0.45312-1.1055h27.348c0.86328 0 1.5625-0.69922 1.5625-1.5625s-0.69922-1.5625-1.5625-1.5625h-3.8242l3.6953-1.707h0.003906c0.35938-0.16797 0.64453-0.46484 0.79297-0.83594zm-39.762-5.9648 5.6328-7.3086 6.4297-1.7539 4.5703 8.1758h0.003907c0.25 0.44531 0.69922 0.74219 1.207 0.79297l7.1602 0.71484 5.3633 6.707-2.5547 1.1797h-17.625c-0.066406 0.003906-0.12891 0.007812-0.19141 0.019531l-4.7578-7.1367c-0.36719-0.55078-1.0391-0.80859-1.6797-0.64844l-2.5469 0.63672-1.6797-0.88281v-0.003906c0.26562-0.097656 0.49609-0.26953 0.66797-0.49219zm-29.395-7.8125c0.17578 0.26172 0.42578 0.46484 0.71875 0.58203l3.0508 1.2188 0.54688 4.3633h-3.0156c-0.39062 0-0.76953 0.14844-1.0547 0.41016l-0.75 0.6875-0.64453-1.6641c-0.16797-0.43359-0.51953-0.76953-0.96484-0.91406l-3.6172-1.207v-6.6875c0-0.33203-0.10547-0.65234-0.30078-0.92188l-3.3125-4.5469h3.5586zm-14.324 16.32v-4.6875c0-0.69922-0.46094-1.3125-1.1328-1.5039l-4.3359-1.2383v-4.0781l2.7891-3.543v0.003906c0.40625-0.51562 0.44922-1.2305 0.10547-1.7891l-2.582-4.1953 2.8359-3.9688h3.4336l4.3555 5.9766v7.3047c0 0.67188 0.42969 1.2695 1.0703 1.4805l3.9883 1.332 0.82031 2.1133-6.1523 5.6406c-0.32422 0.29688-0.50781 0.71484-0.50781 1.1523zm7.8242 0.67578 8.4102-7.707h3.7109l2.7969 1.3984h-0.003907c0.60156 0.30078 1.3281 0.18359 1.8047-0.29297l2.4336-2.4336 10.242 9.5039c0.28906 0.26953 0.66797 0.41797 1.0625 0.41797h2.7812l1.8242 5.4688h-32.891c-0.64844-0.70703-2.0195-2.6289-2.1719-6.3555zm38.262 6.3555c0.003906-0.16797-0.019532-0.33594-0.074219-0.49219l-2.3438-7.0312c-0.21094-0.64062-0.80859-1.0703-1.4805-1.0703h-3.293l-9.1445-8.4844c1.2031-0.28906 2.4727-0.13281 3.5664 0.44141l10.488 5.5195c0.33984 0.17969 0.73437 0.22656 1.1055 0.13281l2.0586-0.51562 4.9297 7.3945-3.7812 3.7812h-0.003907c-0.09375 0.097657-0.17578 0.20703-0.24219 0.32422zm34.727-11.312-3.8047 1.7539-0.007812-0.011718-6.25-7.8125c-0.26172-0.32813-0.64453-0.53516-1.0625-0.57813l-7-0.69922-2.9102-5.2031 2.957 1.1094c0.37109 0.13672 0.78125 0.12891 1.1484-0.023438l8.9336-3.7227 2.7109 0.54297 6.3438 11.984z"/>
  <path fill="#ef3e42" d="m32.031 54.688h-3.125c-0.41406 0-0.8125 0.16406-1.1055 0.45703l-3.9062 3.9062c-0.29297 0.29297-0.45703 0.69141-0.45703 1.1055s0.16406 0.8125 0.45703 1.1055 0.69141 0.45703 1.1055 0.45703 0.8125-0.16406 1.1055-0.45703l3.4492-3.4492h2.4766c0.86328 0 1.5625-0.69922 1.5625-1.5625s-0.69922-1.5625-1.5625-1.5625z"/>
  <path fill="#ef3e42" d="m61.801 49.055c0.37109 0.18359 0.80078 0.21484 1.1953 0.085937 0.39062-0.13281 0.71484-0.41406 0.90234-0.78516l0.49219-0.98438 1.7305-0.57812h-0.003906c0.82031-0.26953 1.2617-1.1562 0.98828-1.9727-0.26953-0.82031-1.1562-1.2617-1.9727-0.98828l-2.3438 0.78125c-0.39453 0.12891-0.71875 0.41016-0.90625 0.78125l-0.78125 1.5625c-0.38672 0.77344-0.070312 1.7109 0.69922 2.0977z"/>
  <path fill="#ef3e42" d="m13.367 44.012c-0.71875-0.47656-1.6875-0.28516-2.168 0.43359l-1.5625 2.3438c-0.23047 0.34375-0.32031 0.76953-0.23828 1.1758 0.082031 0.41016 0.32031 0.76953 0.66797 1 0.34375 0.23047 0.76953 0.3125 1.1758 0.23047 0.41016-0.082031 0.76562-0.32422 0.99609-0.67187l1.5625-2.3438c0.47656-0.71875 0.28516-1.6875-0.43359-2.168z"/>
 </g>
</svg>
