<svg xmlns="http://www.w3.org/2000/svg" version="1.1" viewBox="-5.0 -10.0 110.0 135.0">
 <g>
  <path fill="#ef3e42" d="m93.703 55.047-7.0625-8.375c-1.5781-1.8594-3.8438-2.9219-6.2188-2.9219h-14.797c-0.85938 0-1.5625 0.70312-1.5625 1.5625v18.75h-51.484l-0.078125-21.766c0-0.82812 0.20312-1.6562 0.59375-2.3906l7.4219-13.906c0.46875-1.0312 0.48438-2.2344 0.03125-3.2812s-1.3438-1.8438-2.4219-2.2031c-1.9531-0.64062-4.0625 0.28125-4.875 2.0625l-7.625 14.328c-0.625 1.1875-0.96875 2.5156-0.95312 3.8594l0.078125 23.312h-0.078125c-0.85938 0-1.5625 0.70312-1.5625 1.5625v7.8125c0 0.85938 0.70312 1.5625 1.5625 1.5625h1.5625v4.6875c0 0.85938 0.70312 1.5625 1.5625 1.5625h3.125c0 6.0312 4.9062 10.938 10.938 10.938s10.938-4.9062 10.938-10.938h37.5c0 6.0312 4.9062 10.938 10.938 10.938s10.938-4.9062 10.938-10.938h3.125c0.85938 0 1.5625-0.70312 1.5625-1.5625v-15.875c0-3.25-1.125-6.3594-3.1719-8.7656zm-85.297-16.688 7.6562-14.406c0.1875-0.42188 0.65625-0.625 1.0938-0.46875 0.32812 0.10938 0.48438 0.35938 0.53125 0.48438s0.14062 0.40625 0.03125 0.64062l-7.3906 13.828c-0.64062 1.1875-0.96875 2.5312-0.96875 3.875l0.078125 21.75h-1.5625l-0.078125-23.312c0-0.82812 0.20312-1.6562 0.59375-2.3906zm-2.1562 33.516v-4.6875h57.812v4.6875h-36.578c-1.6406-0.98438-3.5469-1.5625-5.6094-1.5625s-3.9688 0.57812-5.6094 1.5625zm5.1406 6.25h-2.0156v-3.125h3.5312c-0.65625 0.9375-1.1719 2-1.5156 3.125zm10.484 10.938c-4.3125 0-7.8125-3.5-7.8125-7.8125s3.5-7.8125 7.8125-7.8125 7.8125 3.5 7.8125 7.8125-3.5 7.8125-7.8125 7.8125zm48.891-10.938h-38.422c-0.34375-1.125-0.85938-2.1875-1.5156-3.125h41.453c-0.65625 0.9375-1.1719 2-1.5156 3.125zm10.484 10.938c-4.3125 0-7.8125-3.5-7.8125-7.8125s3.5-7.8125 7.8125-7.8125 7.8125 3.5 7.8125 7.8125-3.5 7.8125-7.8125 7.8125zm12.5-10.938h-2.0156c-0.34375-1.125-0.85938-2.1875-1.5156-3.125h3.5312zm0-6.25h-6.8906c-1.6406-0.98438-3.5469-1.5625-5.6094-1.5625s-3.9688 0.57812-5.6094 1.5625h-8.4531v-25h13.234c1.4531 0 2.8594 0.65625 3.8438 1.8125l7.0625 8.375c1.5625 1.8438 2.4375 4.2344 2.4375 6.7344v8.0625z"/>
  <path fill="#ef3e42" d="m83.094 52.531c-1.2188-1.6094-3.0312-2.5312-4.9531-2.5312h-6.2656c-0.85938 0-1.5625 0.70312-1.5625 1.5625v9.375c0 0.85938 0.70312 1.5625 1.5625 1.5625h15.625c0.59375 0 1.1406-0.32812 1.4062-0.85938s0.20312-1.1719-0.15625-1.6406zm-9.6562 6.8438v-6.25h4.7031c0.9375 0 1.8438 0.46875 2.4688 1.2969l3.75 4.9531z"/>
  <path fill="#ef3e42" d="m81.25 76.562c-2.5781 0-4.6875 2.1094-4.6875 4.6875s2.1094 4.6875 4.6875 4.6875 4.6875-2.1094 4.6875-4.6875-2.1094-4.6875-4.6875-4.6875zm0 6.25c-0.85938 0-1.5625-0.70312-1.5625-1.5625s0.70312-1.5625 1.5625-1.5625 1.5625 0.70312 1.5625 1.5625-0.70312 1.5625-1.5625 1.5625z"/>
  <path fill="#ef3e42" d="m21.875 76.562c-2.5781 0-4.6875 2.1094-4.6875 4.6875s2.1094 4.6875 4.6875 4.6875 4.6875-2.1094 4.6875-4.6875-2.1094-4.6875-4.6875-4.6875zm0 6.25c-0.85938 0-1.5625-0.70312-1.5625-1.5625s0.70312-1.5625 1.5625-1.5625 1.5625 0.70312 1.5625 1.5625-0.70312 1.5625-1.5625 1.5625z"/>
  <path fill="#ef3e42" d="m14.516 39.969c-0.70312 1.3594-0.57812 2.9844 0.3125 4.2344l11.016 15.406c1.9375 2.3281 4.7812 3.7969 7.9062 4h18.828c1.5312-0.015625 2.9375-0.875 3.625-2.2344l5.7344-11.156c0.70312-1.375 0.57812-3-0.3125-4.25l-10.953-15.312s-0.046875-0.0625-0.0625-0.09375c-1.9375-2.3281-4.7656-3.7969-7.9062-4.0156h-18.828c-1.5312 0.015625-2.9219 0.875-3.625 2.2344l-5.7344 11.156zm8.5156-9.75c0.17188-0.32812 0.48438-0.51562 0.85938-0.51562h18.719c2.1562 0.125 4.1875 1.1562 5.5625 2.8125l10.922 15.266c0.21875 0.29688 0.23438 0.67188 0.078125 1l-5.7344 11.156c-0.17188 0.32812-0.5 0.51562-0.85938 0.51562h-18.719c-2.1719-0.125-4.2188-1.1719-5.5312-2.7656l-10.953-15.312c-0.20312-0.29688-0.23438-0.67188-0.078125-1z"/>
  <path fill="#ef3e42" d="m31.02 55.48 2.875-5.5508c0.39844-0.76563 1.4844-0.99219 2.1055-0.66797 0.76562 0.39844 1.0664 1.3398 0.66797 2.1055l-2.875 5.5508c-0.39844 0.76562-1.4844 0.99219-2.1055 0.66797-0.76562-0.39844-1.0664-1.3398-0.66797-2.1055z"/>
  <path fill="#ef3e42" d="m39.637 38.832 2.875-5.5508c0.39844-0.76562 1.4844-0.99219 2.1055-0.66797 0.76562 0.39844 1.0664 1.3398 0.66797 2.1055l-2.875 5.5508c-0.39844 0.76562-1.4844 0.99219-2.1055 0.66797-0.76563-0.39844-1.0664-1.3398-0.66797-2.1055z"/>
  <path fill="#ef3e42" d="m36.766 44.391c0.39844-0.76562 1.4844-0.99219 2.1055-0.66797 0.76562 0.39844 1.0664 1.3398 0.66797 2.1055-0.39844 0.76562-1.4844 0.99219-2.1055 0.66797-0.76562-0.39844-1.0664-1.3398-0.66797-2.1055z"/>
 </g>
</svg>