<svg id="Layer_1" xmlns="http://www.w3.org/2000/svg" version="1.1" viewBox="0 0 110 135">
  <!-- Generator: Adobe Illustrator 29.5.1, SVG Export Plug-In . SVG Version: 2.1.0 Build 141)  -->
  <defs>
    <style>
      .st0 {
        fill: #ef3e42;
      }

      .st1 {
        fill: #fff;
        stroke: #ef3e42;
        stroke-miterlimit: 10;
        stroke-width: 3px;
      }

    </style>
  </defs>
  <path class="st1" d="M55,3.1c-27,0-48.9,21.9-48.9,48.9,0,17.7,8.2,36.6,23.9,54.5,7.1,8.2,15,15.5,23.7,21.9.8.6,1.9.6,2.7,0,8.7-6.4,16.6-13.8,23.7-21.9,15.6-17.9,23.9-36.8,23.9-54.5,0-27-21.9-48.9-48.9-48.9Z" />
  <path class="st0" d="M57.7,77.8h-30.2c-.5,0-.9-.2-1.2-.5-.3-.3-.5-.8-.4-1.3l5.8-51.8c0-.8.8-1.4,1.6-1.4h37c.8,0,1.5.6,1.6,1.4l2.9,25.6c0,.9-.5,1.7-1.4,1.8-.9,0-1.7-.5-1.8-1.4l-2.7-24.2h-34.1s-5.4,48.5-5.4,48.5h28.4c.9,0,1.6.7,1.6,1.6s-.7,1.6-1.6,1.6h0Z" />
  <path class="st0" d="M35.8,77.8s0,0-.1,0c-.9,0-1.6-.8-1.5-1.7l3.5-51.8c0-.9.8-1.6,1.7-1.5.9,0,1.6.8,1.5,1.7l-3.5,51.8c0,.9-.8,1.5-1.6,1.5h0Z" />
  <path class="st0" d="M66.1,53.5c-.8,0-1.6-.7-1.6-1.5l-1.8-27.5c0-.9.6-1.7,1.5-1.7.9,0,1.7.6,1.7,1.5l1.8,27.5c0,.9-.6,1.7-1.5,1.7,0,0,0,0-.1,0h0Z" />
  <path class="st0" d="M51.8,35.2c-.9,0-1.6-.7-1.6-1.6v-3.7c0-.9.7-1.6,1.6-1.6s1.6.7,1.6,1.6v3.7c0,.9-.7,1.6-1.6,1.6Z" />
  <path class="st0" d="M51.8,47.6c-.9,0-1.6-.7-1.6-1.6v-3.7c0-.9.7-1.6,1.6-1.6s1.6.7,1.6,1.6v3.7c0,.9-.7,1.6-1.6,1.6Z" />
  <path class="st0" d="M51.8,60c-.9,0-1.6-.7-1.6-1.6v-3.7c0-.9.7-1.6,1.6-1.6s1.6.7,1.6,1.6v3.7c0,.9-.7,1.6-1.6,1.6Z" />
  <path class="st0" d="M51.8,72.4c-.9,0-1.6-.7-1.6-1.6v-3.7c0-.9.7-1.6,1.6-1.6s1.6.7,1.6,1.6v3.7c0,.9-.7,1.6-1.6,1.6Z" />
  <path class="st0" d="M72.8,84.3c-1.6,0-14.6-7.4-14.6-21.3s6.5-14.6,14.6-14.6,14.6,6.5,14.6,14.6c0,13.9-13,21.3-14.6,21.3ZM72.8,51.6c-6.2,0-11.3,5.1-11.3,11.3,0,10.4,8.9,16.7,11.3,17.9,2.5-1.3,11.3-7.6,11.3-17.9s-5.1-11.3-11.3-11.3Z" />
  <path class="st0" d="M72.8,70.8c-4.3,0-7.8-3.5-7.8-7.8s3.5-7.8,7.8-7.8,7.8,3.5,7.8,7.8-3.5,7.8-7.8,7.8ZM72.8,58.4c-2.5,0-4.6,2.1-4.6,4.6s2.1,4.6,4.6,4.6,4.6-2.1,4.6-4.6-2.1-4.6-4.6-4.6Z" />
</svg>
