<svg id="Layer_1" xmlns="http://www.w3.org/2000/svg" version="1.1" viewBox="0 0 110 135">
  <!-- Generator: Adobe Illustrator 29.5.1, SVG Export Plug-In . SVG Version: 2.1.0 Build 141)  -->
  <defs>
    <style>
      .st0 {
        fill: #ef3e42;
      }

      .st1 {
        fill: #fff;
        stroke: #ef3e42;
        stroke-miterlimit: 10;
        stroke-width: 3px;
      }

    </style>
  </defs>
  <path class="st1" d="M55,3.1c-27,0-48.9,21.9-48.9,48.9,0,17.7,8.2,36.6,23.9,54.5,7.1,8.2,15,15.5,23.7,21.9.8.6,1.9.6,2.7,0,8.7-6.4,16.6-13.8,23.7-21.9,15.6-17.9,23.9-36.8,23.9-54.5,0-27-21.9-48.9-48.9-48.9Z" />
  <g>
    <path class="st0" d="M40.3,48c-3.1,2.2-5,5.8-5,9.7s1.9,7.4,5,9.7c.4.3.8.4,1.3.4.7,0,1.4-.4,1.8-1,.3-.5.5-1.1.4-1.7s-.4-1.1-.9-1.5c-1.9-1.4-3.1-3.6-3.1-6s1.2-4.6,3.2-6c2.4-1.7,3.8-4.4,3.8-7.3s-1.5-5.6-3.9-7.3c-1.9-1.4-3.1-3.6-3.1-6s1.2-4.6,3.1-6c.5-.3.8-.9.9-1.5,0-.6,0-1.2-.4-1.7-.7-1-2.1-1.2-3.2-.5-3.1,2.2-5,5.8-5,9.7s1.9,7.5,5.1,9.7c1.2.8,1.9,2.2,1.9,3.6,0,1.4-.7,2.8-2,3.6Z" />
    <path class="st0" d="M52.2,48c-3.1,2.2-5,5.8-5,9.7s1.9,7.4,5,9.7c.4.3.8.4,1.3.4.7,0,1.4-.4,1.8-1,.4-.5.5-1.1.4-1.7s-.4-1.1-.9-1.5c-1.9-1.4-3.1-3.6-3.1-6s1.2-4.6,3.2-6c2.4-1.7,3.8-4.4,3.8-7.3s-1.5-5.6-3.9-7.3c-1.9-1.4-3.1-3.6-3.1-6s1.2-4.6,3.1-6c.5-.4.8-.9.9-1.5,0-.6,0-1.2-.4-1.7-.7-1-2.1-1.2-3.2-.5-3.1,2.2-5,5.8-5,9.7s1.9,7.5,5.1,9.7c1.2.8,1.9,2.2,1.9,3.6s-.7,2.8-2,3.6Z" />
    <path class="st0" d="M64.3,48c-3.1,2.2-5,5.8-5,9.7s1.9,7.4,5,9.7c.4.3.8.4,1.3.4.7,0,1.4-.4,1.8-1,.7-1,.5-2.4-.5-3.1-1.9-1.4-3.1-3.6-3.1-6s1.2-4.6,3.2-6c2.4-1.7,3.8-4.4,3.8-7.3s-1.5-5.6-3.9-7.3c-1.9-1.4-3.1-3.6-3.1-6s1.2-4.6,3.1-6c1-.7,1.2-2.2.5-3.2s-2.1-1.2-3.1-.5c-3.1,2.2-5,5.8-5,9.7s1.9,7.5,5.1,9.7c1.2.8,1.9,2.2,1.9,3.6,0,1.4-.8,2.7-2.1,3.6Z" />
    <path class="st0" d="M79.2,71.6H26.9c-1.2,0-2.3,1-2.3,2.3s1,2.3,2.3,2.3h52.3c1.2,0,2.3-1,2.3-2.3s-1-2.3-2.2-2.3Z" />
  </g>
</svg>
