<svg id="Layer_1" xmlns="http://www.w3.org/2000/svg" version="1.1" viewBox="0 0 110 135">
  <!-- Generator: Adobe Illustrator 29.5.1, SVG Export Plug-In . SVG Version: 2.1.0 Build 141)  -->
  <defs>
    <style>
      .st0 {
        fill: #ef3e42;
      }

      .st1 {
        fill: #fff;
        stroke: #ef3e42;
        stroke-miterlimit: 10;
        stroke-width: 3px;
      }

    </style>
  </defs>
  <path class="st1" d="M55,3.1c-27,0-48.9,21.9-48.9,48.9,0,17.7,8.2,36.6,23.9,54.5,7.1,8.2,15,15.5,23.7,21.9.8.6,1.9.6,2.7,0,8.7-6.4,16.6-13.8,23.7-21.9,15.6-17.9,23.9-36.8,23.9-54.5,0-27-21.9-48.9-48.9-48.9Z" />
  <path class="st0" d="M73.2,27.7h.9c.9,0,1.6-.4,2.2-.9.6-.6.9-1.3.9-2.2s-.4-1.6-.9-2.2c-.6-.6-1.3-.9-2.2-.9h-38.7c-.9,0-1.6.4-2.2.9s-.9,1.3-.9,2.2.4,1.6.9,2.2c.6.6,1.3.9,2.2.9h37.8,0ZM61.1,47.3c1.8,0,3.5.7,4.7,1.9s1.9,2.9,1.9,4.7-.7,3.5-1.9,4.7-2.9,1.9-4.7,1.9-3.5-.7-4.7-1.9-1.9-2.9-1.9-4.7.7-3.5,1.9-4.7,2.9-1.9,4.7-1.9ZM63.5,51.6c-.6-.6-1.5-1-2.4-1s-1.8.4-2.4,1c-.6.6-1,1.5-1,2.4s.4,1.8,1,2.4c.6.6,1.5,1,2.4,1s1.8-.4,2.4-1c.6-.6,1-1.5,1-2.4s-.4-1.8-1-2.4ZM48.2,33.2c2.1,0,4,.9,5.4,2.2,1.4,1.4,2.2,3.3,2.2,5.4s-.9,4-2.2,5.4c-1.4,1.4-3.3,2.2-5.4,2.2s-4-.9-5.4-2.2c-1.4-1.4-2.2-3.3-2.2-5.4s.9-4,2.2-5.4c1.4-1.4,3.3-2.2,5.4-2.2ZM51.4,37.7c-.8-.8-1.9-1.3-3.1-1.3s-2.3.5-3.1,1.3c-.8.8-1.3,1.9-1.3,3.1s.5,2.3,1.3,3.1c.8.8,1.9,1.3,3.1,1.3s2.3-.5,3.1-1.3c.8-.8,1.3-1.9,1.3-3.1s-.5-2.3-1.3-3.1ZM37.8,53.2c5.2-1.6,8.7,2.1,12.4,5.9,2.9,3,5.9,6.1,9.7,6.1,7.5,0,11-6.5,11.6-8v-26.4h-33.8v22.3h0ZM71.6,63.1c-2.3,2.7-6.1,5.4-11.6,5.4s-8.7-3.6-12.1-7.1c-3.2-3.3-6.1-6.4-10.1-4.7v21.1c0,1.6.7,3.1,1.7,4.1,1.1,1.1,2.5,1.7,4.1,1.7h22.1c1.6,0,3.1-.7,4.1-1.7,1.1-1.1,1.7-2.5,1.7-4.1v-14.7h0ZM74.8,30.9v46.9c0,2.5-1,4.8-2.7,6.4-1.6,1.6-3.9,2.7-6.4,2.7h-22.1c-2.5,0-4.8-1-6.4-2.7-1.6-1.6-2.7-3.9-2.7-6.4V30.9c-1.5-.2-2.8-.8-3.7-1.8-1.1-1.1-1.9-2.7-1.9-4.5s.7-3.3,1.9-4.5c1.1-1.1,2.7-1.9,4.5-1.9h38.7c1.7,0,3.3.7,4.5,1.9,1.1,1.1,1.9,2.7,1.9,4.5s-.7,3.3-1.9,4.5c-1,1-2.3,1.6-3.7,1.8h0Z" />
</svg>
