<svg id="Layer_1" xmlns="http://www.w3.org/2000/svg" version="1.1" viewBox="0 0 110 135">
  <!-- Generator: Adobe Illustrator 29.5.1, SVG Export Plug-In . SVG Version: 2.1.0 Build 141)  -->
  <defs>
    <style>
      .st0 {
        fill: #ef3e42;
      }

      .st1 {
        fill: #fff;
        stroke: #ef3e42;
        stroke-miterlimit: 10;
        stroke-width: 3px;
      }

    </style>
  </defs>
  <path class="st1" d="M55,3.1c-27,0-48.9,21.9-48.9,48.9,0,17.7,8.2,36.6,23.9,54.5,7.1,8.2,15,15.5,23.7,21.9.8.6,1.9.6,2.7,0,8.7-6.4,16.6-13.8,23.7-21.9,15.6-17.9,23.9-36.8,23.9-54.5,0-27-21.9-48.9-48.9-48.9Z" />
  <path class="st0" d="M78.8,21.2h-3.4v-4.6c0-.7-.5-1.2-1.2-1.2h-38.4c-.7,0-1.2.5-1.2,1.2v4.6h-3.4c-.7,0-1.2.5-1.2,1.2v63.7c0,.7.5,1.2,1.2,1.2h47.5c.7,0,1.2-.5,1.2-1.2V22.4c0-.7-.5-1.2-1.2-1.2ZM37,17.8h36v3.4h-36v-3.4ZM48.7,84.9v-11.4h12.7v11.4h-12.7ZM77.6,84.9h-13.8v-12.6c0-.7-.5-1.2-1.2-1.2h-15.1c-.7,0-1.2.5-1.2,1.2v12.6h-13.8V23.6h45.1s0,61.3,0,61.3Z" />
  <path class="st0" d="M45.6,28.2h-8c-.7,0-1.2.5-1.2,1.2v8c0,.7.5,1.2,1.2,1.2h8c.7,0,1.2-.5,1.2-1.2v-8c0-.7-.5-1.2-1.2-1.2ZM44.4,36.2h-5.6v-5.6h5.6v5.6Z" />
  <path class="st0" d="M59,28.2h-8c-.7,0-1.2.5-1.2,1.2v8c0,.7.5,1.2,1.2,1.2h8c.7,0,1.2-.5,1.2-1.2v-8c0-.7-.5-1.2-1.2-1.2ZM57.8,36.2h-5.6v-5.6h5.6v5.6Z" />
  <path class="st0" d="M72.4,28.2h-8c-.7,0-1.2.5-1.2,1.2v8c0,.7.5,1.2,1.2,1.2h8c.7,0,1.2-.5,1.2-1.2v-8c0-.7-.5-1.2-1.2-1.2ZM71.2,36.2h-5.6v-5.6h5.6v5.6Z" />
  <path class="st0" d="M45.6,42.1h-8c-.7,0-1.2.5-1.2,1.2v8c0,.7.5,1.2,1.2,1.2h8c.7,0,1.2-.5,1.2-1.2v-8c0-.7-.5-1.2-1.2-1.2ZM44.4,50.1h-5.6v-5.6h5.6v5.6Z" />
  <path class="st0" d="M59,42.1h-8c-.7,0-1.2.5-1.2,1.2v8c0,.7.5,1.2,1.2,1.2h8c.7,0,1.2-.5,1.2-1.2v-8c0-.7-.5-1.2-1.2-1.2ZM57.8,50.1h-5.6v-5.6h5.6v5.6Z" />
  <path class="st0" d="M72.4,42.1h-8c-.7,0-1.2.5-1.2,1.2v8c0,.7.5,1.2,1.2,1.2h8c.7,0,1.2-.5,1.2-1.2v-8c0-.7-.5-1.2-1.2-1.2ZM71.2,50.1h-5.6v-5.6h5.6v5.6Z" />
  <path class="st0" d="M45.6,56h-8c-.7,0-1.2.5-1.2,1.2v8c0,.7.5,1.2,1.2,1.2h8c.7,0,1.2-.5,1.2-1.2v-8c0-.7-.5-1.2-1.2-1.2ZM44.4,64h-5.6v-5.6h5.6v5.6Z" />
  <path class="st0" d="M59,56h-8c-.7,0-1.2.5-1.2,1.2v8c0,.7.5,1.2,1.2,1.2h8c.7,0,1.2-.5,1.2-1.2v-8c0-.7-.5-1.2-1.2-1.2ZM57.8,64h-5.6v-5.6h5.6v5.6Z" />
  <path class="st0" d="M72.4,56h-8c-.7,0-1.2.5-1.2,1.2v8c0,.7.5,1.2,1.2,1.2h8c.7,0,1.2-.5,1.2-1.2v-8c0-.7-.5-1.2-1.2-1.2ZM71.2,64h-5.6v-5.6h5.6v5.6Z" />
</svg>
