<svg id="Layer_1" xmlns="http://www.w3.org/2000/svg" version="1.1" viewBox="0 0 110 135">
  <!-- Generator: Adobe Illustrator 29.5.1, SVG Export Plug-In . SVG Version: 2.1.0 Build 141)  -->
  <defs>
    <style>
      .st0 {
        fill: #ef3e42;
      }

      .st1 {
        fill: #fff;
        stroke: #ef3e42;
        stroke-miterlimit: 10;
        stroke-width: 3px;
      }

    </style>
  </defs>
  <path class="st1" d="M55,3.1c-27,0-48.9,21.9-48.9,48.9,0,17.7,8.2,36.6,23.9,54.5,7.1,8.2,15,15.5,23.7,21.9.8.6,1.9.6,2.7,0,8.7-6.4,16.6-13.8,23.7-21.9,15.6-17.9,23.9-36.8,23.9-54.5,0-27-21.9-48.9-48.9-48.9Z" />
  <g>
    <path class="st0" d="M88.9,47.1l-5.5-6.5c-1.2-1.4-3-2.3-4.8-2.3h-11.5c-.7,0-1.2.5-1.2,1.2v14.6H26v-16.9c0-.6,0-1.3.4-1.9l5.8-10.8c.4-.8.4-1.7,0-2.5s-1-1.4-1.9-1.7c-1.5-.5-3.2.2-3.8,1.6l-5.9,11.1c-.5.9-.8,2-.7,3v18.1c0,0,0,0,0,0-.7,0-1.2.5-1.2,1.2v6.1c0,.7.5,1.2,1.2,1.2h1.2v3.6c0,.7.5,1.2,1.2,1.2h2.4c0,4.7,3.8,8.5,8.5,8.5s8.5-3.8,8.5-8.5h29.1c0,4.7,3.8,8.5,8.5,8.5s8.5-3.8,8.5-8.5h2.4c.7,0,1.2-.5,1.2-1.2v-12.3c0-2.5-.9-4.9-2.5-6.8h0ZM22.7,34.2l5.9-11.2c.1-.3.5-.5.8-.4.3,0,.4.3.4.4s.1.3,0,.5l-5.7,10.7c-.5.9-.8,2-.8,3v16.9c0,0-1.2,0-1.2,0v-18.1c0-.6,0-1.3.4-1.9h0ZM21,60.2v-3.6h44.9v3.6h-28.4c-1.3-.8-2.8-1.2-4.4-1.2s-3.1.4-4.4,1.2h-7.8ZM25,65h-1.6v-2.4h2.7c-.5.7-.9,1.6-1.2,2.4ZM33.2,73.5c-3.3,0-6.1-2.7-6.1-6.1s2.7-6.1,6.1-6.1,6.1,2.7,6.1,6.1-2.7,6.1-6.1,6.1ZM71.1,65h-29.8c-.3-.9-.7-1.7-1.2-2.4h32.2c-.5.7-.9,1.6-1.2,2.4h0ZM79.3,73.5c-3.3,0-6.1-2.7-6.1-6.1s2.7-6.1,6.1-6.1,6.1,2.7,6.1,6.1-2.7,6.1-6.1,6.1ZM89,65h-1.6c-.3-.9-.7-1.7-1.2-2.4h2.7v2.4ZM89,60.2h-5.4c-1.3-.8-2.8-1.2-4.4-1.2s-3.1.4-4.4,1.2h-6.6v-19.4h10.3c1.1,0,2.2.5,3,1.4l5.5,6.5c1.2,1.4,1.9,3.3,1.9,5.2v6.3h0Z" />
    <path class="st0" d="M80.7,45.2c-.9-1.2-2.4-2-3.8-2h-4.9c-.7,0-1.2.5-1.2,1.2v7.3c0,.7.5,1.2,1.2,1.2h12.1c.5,0,.9-.3,1.1-.7s.2-.9-.1-1.3l-4.4-5.8ZM73.2,50.5v-4.9h3.7c.7,0,1.4.4,1.9,1l2.9,3.8h-8.5Z" />
    <path class="st0" d="M79.3,63.8c-2,0-3.6,1.6-3.6,3.6s1.6,3.6,3.6,3.6,3.6-1.6,3.6-3.6-1.6-3.6-3.6-3.6ZM79.3,68.7c-.7,0-1.2-.5-1.2-1.2s.5-1.2,1.2-1.2,1.2.5,1.2,1.2-.5,1.2-1.2,1.2Z" />
    <path class="st0" d="M33.2,63.8c-2,0-3.6,1.6-3.6,3.6s1.6,3.6,3.6,3.6,3.6-1.6,3.6-3.6-1.6-3.6-3.6-3.6ZM33.2,68.7c-.7,0-1.2-.5-1.2-1.2s.5-1.2,1.2-1.2,1.2.5,1.2,1.2-.5,1.2-1.2,1.2Z" />
    <path class="st0" d="M27.5,35.4c-.5,1.1-.4,2.3.2,3.3l8.6,12c1.5,1.8,3.7,2.9,6.1,3.1h14.6c1.2,0,2.3-.7,2.8-1.7l4.5-8.7c.5-1.1.4-2.3-.2-3.3l-8.5-11.9s0,0,0,0c-1.5-1.8-3.7-2.9-6.1-3.1h-14.6c-1.2,0-2.3.7-2.8,1.7l-4.5,8.7h0ZM34.1,27.8c.1-.3.4-.4.7-.4h14.5c1.7,0,3.3.9,4.3,2.2l8.5,11.9c.2.2.2.5,0,.8l-4.5,8.7c-.1.3-.4.4-.7.4h-14.5c-1.7,0-3.3-.9-4.3-2.1l-8.5-11.9c-.2-.2-.2-.5,0-.8l4.5-8.7Z" />
    <path class="st0" d="M40.3,47.5l2.2-4.3c.3-.6,1.2-.8,1.6-.5.6.3.8,1,.5,1.6l-2.2,4.3c-.3.6-1.2.8-1.6.5-.6-.3-.8-1-.5-1.6Z" />
    <path class="st0" d="M47,34.5l2.2-4.3c.3-.6,1.2-.8,1.6-.5.6.3.8,1,.5,1.6l-2.2,4.3c-.3.6-1.2.8-1.6.5-.6-.3-.8-1-.5-1.6Z" />
    <path class="st0" d="M44.7,38.9c.3-.6,1.2-.8,1.6-.5.6.3.8,1,.5,1.6-.3.6-1.2.8-1.6.5-.6-.3-.8-1-.5-1.6Z" />
  </g>
</svg>
